<?xml version="1.0" encoding="utf-8"?>
<!-- Generator: Adobe Illustrator 24.3.0, SVG Export Plug-In . SVG Version: 6.00 Build 0)  -->
<svg version="1.1" id="Layer_1" xmlns="http://www.w3.org/2000/svg" xmlns:xlink="http://www.w3.org/1999/xlink" x="0px" y="0px"
	 viewBox="0 0 103.4 115.6" style="enable-background:new 0 0 103.4 115.6;" xml:space="preserve">
<g id="Layer_2_1_">
	<path d="M12.3,64.8c0,7.6,4.3,12.7,10.5,14.7C16.5,78.1,8,73.6,8,63.7c0-17.5,30.2-35.3,65.8-31C45.5,31.6,12.3,46.6,12.3,64.8z
		 M42.3,92.9c-7.1,11.6-17.7,22.2-31.7,22.2c-5.5,0-9.7-2.1-9.7-6.1s4-5.5,8.5-5.5c3.8-0.1,7.6,0.6,11.1,1.8c-3.5-0.8-7-1.1-10.6-1
		c-4.9,0-7.3,1.7-7.3,4.2c0,3,3.4,4.4,8.2,4.4c12.1,0,21.3-9.3,29.3-22.1l28.9-44c9.7-16,24.4-25.6,34.4-25.6
		C95,22,81.9,31.3,71.8,46.9L42.3,92.9z M46.3,73.3c0,6.5-11.4,8.6-20.5,6.9c8.7,0.6,16.5-3.2,17.4-10.5
		C44.9,70.2,46.1,71.6,46.3,73.3L46.3,73.3z M91.7,94.8c0-10.8-7.2-20.5-29.5-20.5c25.4-1.2,33.3,9.2,33.3,20.6
		c0,16.9-24.2,28.8-56.9,14.2C70.7,121.3,91.8,109,91.7,94.8L91.7,94.8z M63,72c20.6,0.4,33.7-5.6,33.7-20c0-7.2-2.5-13.5-11.1-17.2
		l0,0c9.3,2.9,14.6,8.8,14.6,17.1C100.2,64,88.8,74.7,63,72z"/>
	<rect x="5.1" width="50.8" height="21.3"/>
	<rect x="5.1" y="30" width="50.8" height="21.3"/>
	<rect width="21.3" height="70.3"/>
</g>
</svg>
